<svg xmlns="http://www.w3.org/2000/svg" viewBox="0 0 20 20"><path d="M10 .4C4.8.4.4 4.8.4 9.9c-.1 5.2 4.3 9.6 9.5 9.6 5.3 0 9.6-4.4 9.6-9.5.1-5.2-4.3-9.6-9.5-9.6zm4.6 7c-.3.3-.4.6-.4 1-.1 2.4-1.7 4.8-4.1 5.6-1.8.6-3.5.4-5.1-.5.5-.1 1-.1 1.4-.2.5-.1.9-.4 1.3-.6v-.1c-.2-.1-.4-.1-.6-.3-.4-.3-.7-.5-1-.8-.2-.3-.2-.4.2-.4.1 0 .2 0 .2-.1-1.2-1-1.4-1.3-1.4-2.1.2 0 .5.1.7.1 0 0 .1 0 .1-.1-.8-.9-1-1.8-.5-2.8l.4.4c1 1 2.2 1.6 3.6 1.8.3 0 .4 0 .4-.3-.1-1.3 1-2.5 2.4-2.3.3 0 .6.1.8.3.6.3 1 .3 1.5 0 .1 0 .2-.1.3-.1 0 0 0 .1.1.1l-.6.9s0 .1.1.1c.2-.1.5-.1.7-.2l.1.1c-.2.1-.4.4-.6.5z"/></svg>