<svg xmlns="http://www.w3.org/2000/svg" viewBox="0 0 20 20"><path d="M10 .4C4.8.4.4 4.7.4 9.9s4.4 9.7 9.5 9.6c5.2.1 9.6-4.3 9.6-9.5.1-5.2-4.3-9.5-9.5-9.6zm4.7 8.3c-.1.9-.4 1.8-1 2.6-.8 1-1.9 1.5-3.2 1.3-.4-.1-.7-.3-1-.5-.1 0-.2-.1-.3-.3-.4 1.6-.7 3-1.8 4.2-.2-.8-.3-1.5-.1-2.2.3-1.4.6-2.7.9-4.1v-.6c-.2-.6-.3-1.3.2-2 .3-.4.8-.6 1.2-.5.6.2.8.8.7 1.4-.2.7-.4 1.4-.6 2-.1.5 0 .9.4 1.2.4.3.9.3 1.4.1.6-.2.9-.7 1.1-1.2.4-.8.5-1.8.4-2.8-.1-1.2-.9-2-2-2.2-1.2-.2-2.4-.1-3.3.9-1 .9-1.3 2-1 3.2 0 .1.1.3.2.4.3.3.3.6.2 1-.1.3-.3.4-.6.2s-.6-.5-.8-.8c-.8-1.3-.5-3.1.5-4.3C7.2 4.5 8.5 4 10 3.9c1.4-.1 2.7.3 3.7 1.4.9.9 1.2 2.1 1 3.4z"/></svg>