<svg xmlns="http://www.w3.org/2000/svg" viewBox="0 0 20 20"><path d="M10 .4C4.8.4.4 4.8.4 9.9c-.1 5.2 4.3 9.6 9.5 9.6 5.3 0 9.6-4.4 9.6-9.5.1-5.2-4.3-9.6-9.5-9.6zm2.4 5.7c0 .3-.1.4-.4.4-.3 0-.6 0-.8.1-.1 0-.3.2-.4.3-.1.4-.1.8-.1 1.1 0 .1.2.2.3.2h1c.2 0 .3.1.3.3-.1.4-.1.9-.2 1.3 0 .1-.2.2-.3.2H11c-.3 0-.4.1-.4.4v4.4c0 .5 0 .5-.5.5H8.8c-.3 0-.4-.1-.3-.3v-4.5c0-.3-.1-.4-.4-.4-.8 0-.7.1-.7-.7v-.7c0-.3.1-.3.3-.4.7 0 .7 0 .7-.8 0-.6 0-1.1.3-1.7.3-.6.8-.9 1.4-.9.6-.1 1.2 0 1.7-.1.3 0 .4.1.4.4.2.2.2.6.2.9z"/></svg>