<svg xmlns="http://www.w3.org/2000/svg" viewBox="0 0 20 20"><path d="M10.1.4C4.8.4.4 4.8.4 10c-.1 5.2 4.3 9.5 9.5 9.5 5.3 0 9.6-4.4 9.7-9.5 0-5.3-4.4-9.5-9.5-9.6zm1.5 4.9c.3 0 .3.2.3.4v1.8c0 .1.1.2.2.4.1-.1.3-.2.4-.4.1-.2 0-.5 0-.7V5.6c0-.1.1-.2.2-.3.2 0 .3.1.3.3v2.5c0 .1-.1.3-.1.3h-.4c-.1-.2-.3-.1-.4 0-.5.3-.8.1-.8-.4V5.9c0-.4 0-.6.3-.6zm-2.5.6c0-.4.4-.7.8-.7s.8.3.8.6v1.9c0 .4-.3.6-.8.6s-.8-.2-.8-.6V5.9zM6.9 4.2c.2-.1.5 0 .5.3.1.2.1.5.2.7 0 .2.1.3.2.5h.1c.1-.4.2-.8.3-1.1 0-.1.2-.3.3-.3.2-.1.4 0 .3.3-.1.4-.3 1-.5 1.4-.2.7-.1 1.3-.1 2 0 .3-.1.4-.4.4-.2-.1-.3-.1-.3-.4.1-1.1-.2-2.2-.6-3.2v-.2c-.1-.1-.3-.3 0-.4zm7.6 10.5c-.1.5-.3.8-.8.8l-3.6.3c-1.2-.1-2.4-.2-3.7-.3-.5 0-.7-.3-.8-.7-.3-1.4-.3-2.9 0-4.3.1-.7.6-.7 1.1-.8 1.9-.2 3.9-.3 5.8-.1.4 0 .8.1 1.2.2.5 0 .7.4.7.8.3 1.4.3 2.7.1 4.1z"/><path d="M11 11.8c.7-.2 1-.1 1 .6V14c0 .5-.3.6-.7.5H11c-.6 0-.6 0-.6-.5v-2.8c0-.2 0-.4.3-.4s.3.2.3.4v.6zm.4 1.3v-.7c0-.1-.1-.2-.2-.2-.1.1-.2.1-.2.2v1.4c0 .1.1.1.2.2l.2-.2v-.7zm.8 0v-.7c0-.5.4-.8.9-.8s.7.3.7.8v.1c0 .6 0 .6-.6.6-.4 0-.6.3-.4.7 0 .1.2.1.2.1.1 0 .2-.1.2-.2 0-.3.2-.3.4-.3.3 0 .2.3.2.4 0 .4-.4.6-.8.6s-.7-.3-.8-.7v-.6zm.9-.3c.1-.2.2-.3.2-.4 0-.1-.1-.2-.2-.2-.1.1-.2.2-.2.3-.1 0 0 .1.2.3zM9.2 14c.1-.2.2-.3.2-.5V12c0-.2 0-.4.3-.4s.3.2.3.4v2c0 .4-.1.4-.5.4H9c-.4.1-.6 0-.7-.4v-2.1c0-.1.2-.2.3-.3.2.2.4.3.4.4v1.6c0 .1 0 .3.1.4h.1zm-2-3.3h.7c.2 0 .3.1.2.3 0 .1-.1.3-.2.3-.3 0-.4.2-.4.4v2.4c0 .2 0 .4-.3.4s-.4-.1-.4-.4v-2.4c0-.3 0-.4-.4-.4-.2 0-.3-.1-.3-.3 0-.1.2-.2.3-.2.4-.1.6-.1.8-.1zm2.5-3.9V6c0-.1.2-.2.2-.3.1.1.3.2.3.3v1.6c0 .1-.2.2-.3.3-.1-.1-.2-.2-.2-.3-.1-.3 0-.5 0-.8z"/></svg>